# xmcd
#
# Track frame offsets:
#	150
#	20297
#	39550
#	61282
#	91137
#	120265
#	138455
#	175137
#	208365
#	233822
#
# Disc length: 3426 seconds
#
# Revision: 5
# Processed by: cddbd v1.5.2PL0 Copyright (c) Steve Scherf et al.
# Submitted via: audiograbber 1.83.01
#
DISCID=800d600a
DTITLE=Various Artist - Jazz thing presents The ESC Records Music Sampler
DYEAR=2000
DGENRE=Jazz
TTITLE0=Bill Evans - Lose My Number - [2000]
TTITLE1=Maceo Parker - Uptown Up - [2000]
TTITLE2=Joe Zawinul - In An Island Way - [2000]
TTITLE3=Boomish - Fome - [2000]
TTITLE4=Jim Beard - Jambolay - [2000]
TTITLE5=Trilok Gurtu - African Fantasy - [2000]
TTITLE6=Joe Zawinul and The Zawinul Syndicate - Zansa II - [2000]
TTITLE7=Tribal Tech - Saturn 5 - [2000]
TTITLE8=Victor Bailey - Graham Cracker - [2000]
TTITLE9=Maceo Parker - Rabbits In The Pea Patch - [2000]
EXTD=YEAR: 2000
EXTT0=
EXTT1=
EXTT2=
EXTT3=
EXTT4=
EXTT5=
EXTT6=
EXTT7=
EXTT8=
EXTT9=
PLAYORDER=
